<svg xmlns="http://www.w3.org/2000/svg" width="128" height="128" viewBox="0 0 40 40">
  <defs>
    <linearGradient id="bg" x1="6" y1="5" x2="34" y2="36" gradientUnits="userSpaceOnUse">
      <stop stop-color="#1B8A83"/>
      <stop offset="1" stop-color="#0F5D66"/>
    </linearGradient>
  </defs>
  <rect x="3" y="3" width="34" height="34" rx="9" fill="url(#bg)"/>
  <path fill="#FFFFFF" transform="translate(5.5 5.5) scale(1.22)" d="M13 14c-3.36 0-4.46 1.35-4.82 2.24A3.002 3.002 0 0 1 7 22c-1.66 0-3-1.34-3-3c0-1.31.83-2.42 2-2.83V7.83A2.99 2.99 0 0 1 4 5c0-1.66 1.34-3 3-3s3 1.34 3 3c0 1.31-.83 2.42-2 2.83v5.29c.88-.65 2.16-1.12 4-1.12c2.67 0 3.56-1.34 3.85-2.23A3.01 3.01 0 0 1 14 7c0-1.66 1.34-3 3-3s3 1.34 3 3c0 1.34-.88 2.5-2.09 2.86C17.65 11.29 16.68 14 13 14m-6 4c-.55 0-1 .45-1 1s.45 1 1 1s1-.45 1-1s-.45-1-1-1M7 4c-.55 0-1 .45-1 1s.45 1 1 1s1-.45 1-1s-.45-1-1-1m10 2c-.55 0-1 .45-1 1s.45 1 1 1s1-.45 1-1s-.45-1-1-1"/>
  <path fill="#8BF0C3" transform="translate(5.5 5.5) scale(1.22)" d="M16.75 21.16l-2.75-3L15.16 17l1.59 1.59L20.34 15l1.16 1.41z"/>
</svg>
